<?xml version="1.0" encoding="utf-8"?>
<!-- Generator: Adobe Illustrator 17.1.0, SVG Export Plug-In . SVG Version: 6.00 Build 0)  -->
<!DOCTYPE svg PUBLIC "-//W3C//DTD SVG 1.1//EN" "http://www.w3.org/Graphics/SVG/1.1/DTD/svg11.dtd">
<svg version="1.1" id="Layer_1" xmlns="http://www.w3.org/2000/svg" xmlns:xlink="http://www.w3.org/1999/xlink" x="0px" y="0px"
	 viewBox="0 0 61.7 61.7" enable-background="new 0 0 61.7 61.7" xml:space="preserve">
<g>
	<path fill="#F7931A" d="M32,33l-3.3-0.9l-2.1,7.4l3.4,1c1.8,0.5,3.8-0.4,4.5-2.7C35.1,35.5,34.3,33.6,32,33z"/>
	<path fill="#F7931A" d="M34.5,21.7l-2.7-0.7l-1.8,6.4l2.6,0.7c2.2,0.6,3.2-0.4,3.8-2.5C37,23.6,36.1,22.1,34.5,21.7z"/>
	<path fill="#F7931A" d="M30.9,0C13.8,0,0,13.8,0,30.9c0,17,13.8,30.9,30.9,30.9c17,0,30.9-13.8,30.9-30.9C61.7,13.8,47.9,0,30.9,0z
		 M46.3,26.8c-1,3.6-2.5,5-6,5.4c2.8,1.7,4.7,4.7,3.6,8.8c-1.4,5.1-4.6,7.1-10.7,6.1l-1.1,4.1l-5.5-1.6l1.1-3.9l-4.2-1.2l-1.1,3.9
		l-5.5-1.6l1.1-3.9l-4.1-1.1l1.5-5.5l2.5,0.7l5.2-18.6l-2.5-0.7l1.5-5.5l4.1,1.1l1.3-4.7l5.5,1.6l-1.3,4.7l4.2,1.2l1.3-4.7l5.5,1.6
		l-1.4,5C45.9,20,47.4,23,46.3,26.8z"/>
</g>
</svg>
